<?xml version="1.0" encoding="UTF-8" ?>
<!DOCTYPE svg PUBLIC "-//W3C//DTD SVG 1.1//EN" "http://www.w3.org/Graphics/SVG/1.1/DTD/svg11.dtd">
<svg width="50pt" height="50pt" viewBox="0 0 50 50" version="1.1" xmlns="http://www.w3.org/2000/svg">
<path fill="#ffffff" d=" M 0.00 0.00 L 22.41 0.00 C 11.13 1.24 1.79 10.55 0.00 21.67 L 0.00 0.00 Z" />
<path fill="#45b39c" d=" M 22.41 0.00 L 28.23 0.00 C 39.59 1.74 49.03 11.38 50.00 22.93 L 50.00 28.15 C 48.73 34.21 46.02 40.14 41.10 44.09 C 37.25 47.60 32.13 49.21 27.08 50.00 L 21.87 50.00 C 10.57 48.31 1.09 38.81 0.00 27.34 L 0.00 21.67 C 1.79 10.55 11.13 1.24 22.41 0.00 Z" />
<path fill="#ffffff" d=" M 28.23 0.00 L 50.00 0.00 L 50.00 22.93 C 49.03 11.38 39.59 1.74 28.23 0.00 Z" />
<path fill="#334d5c" d=" M 18.88 15.86 C 20.97 12.60 22.72 8.83 25.71 6.32 C 30.33 8.39 34.24 11.69 38.53 14.31 C 38.60 14.98 38.75 16.33 38.82 17.00 C 38.41 16.58 37.99 16.16 37.58 15.75 C 36.96 15.22 35.72 14.15 35.10 13.61 C 34.75 14.28 34.05 15.60 33.70 16.27 C 33.29 17.01 32.87 17.74 32.45 18.48 C 27.58 18.45 22.70 18.49 17.82 18.40 C 18.08 17.77 18.61 16.50 18.88 15.86 Z" />
<path fill="#85949c" d=" M 25.60 8.91 C 26.99 10.11 24.39 13.38 22.82 13.78 C 22.80 11.95 24.13 9.97 25.60 8.91 Z" />
<path fill="#c48f4c" d=" M 35.10 13.61 C 35.72 14.15 36.96 15.22 37.58 15.75 C 36.26 17.08 34.83 18.29 33.26 19.32 C 33.37 18.56 33.59 17.03 33.70 16.27 C 34.05 15.60 34.75 14.28 35.10 13.61 Z" />
<path fill="#8a9e6c" d=" M 37.58 15.75 C 37.99 16.16 38.41 16.58 38.82 17.00 L 39.00 17.18 C 38.74 18.40 38.49 19.62 38.25 20.84 C 30.81 20.77 23.37 20.82 15.93 20.85 C 13.79 20.96 11.69 20.41 9.91 19.21 C 9.23 14.22 15.91 15.87 18.88 15.86 C 18.61 16.50 18.08 17.77 17.82 18.40 C 22.70 18.49 27.58 18.45 32.45 18.48 C 32.87 17.74 33.29 17.01 33.70 16.27 C 33.59 17.03 33.37 18.56 33.26 19.32 C 34.83 18.29 36.26 17.08 37.58 15.75 Z" />
<path fill="#ac5e2e" d=" M 38.25 20.84 C 38.49 19.62 38.74 18.40 39.00 17.18 C 39.10 20.57 39.33 24.18 41.49 26.97 C 41.53 28.76 41.54 30.55 41.47 32.34 C 40.28 34.43 40.10 36.93 38.99 39.03 C 37.18 39.97 34.96 39.47 32.99 39.63 C 26.04 39.42 19.07 39.88 12.13 39.42 C 10.31 39.58 10.18 37.40 10.15 36.09 C 9.98 30.47 10.42 24.83 9.91 19.21 C 11.69 20.41 13.79 20.96 15.93 20.85 C 23.37 20.82 30.81 20.77 38.25 20.84 Z" />
<path fill="#d9ac40" d=" M 34.27 28.25 C 36.11 27.65 38.02 30.18 36.73 31.68 C 36.03 33.15 33.93 32.90 32.88 31.97 C 32.13 30.52 32.63 28.74 34.27 28.25 Z" />
<path fill="#ffffff" d=" M 0.00 27.34 C 1.09 38.81 10.57 48.31 21.87 50.00 L 0.00 50.00 L 0.00 27.34 Z" />
<path fill="#ffffff" d=" M 41.10 44.09 C 46.02 40.14 48.73 34.21 50.00 28.15 L 50.00 50.00 L 27.08 50.00 C 32.13 49.21 37.25 47.60 41.10 44.09 Z" />
</svg>
