<?xml version="1.0" encoding="utf-8"?>
<!-- Generated by IcoMoon.io -->
<!DOCTYPE svg PUBLIC "-//W3C//DTD SVG 1.1//EN" "http://www.w3.org/Graphics/SVG/1.1/DTD/svg11.dtd">
<svg version="1.1" xmlns="http://www.w3.org/2000/svg" xmlns:xlink="http://www.w3.org/1999/xlink" width="20" height="20" viewBox="0 0 20 20">
<path fill="#444444" d="M10 12.5c0-0.69 0.56-1.25 1.25-1.25s1.25 0.56 1.25 1.25c0 0.69-0.56 1.25-1.25 1.25s-1.25-0.56-1.25-1.25zM18.126 8.125c-0.001 0-0.001 0 0 0l-0.001-3.75v-1.875c0-1.036-0.84-1.875-1.875-1.875h-12.813c-1.896 0-3.438 1.542-3.438 3.438v12.5c0 1.895 1.542 3.438 3.438 3.438h11.25c1.895 0 3.438-1.543 3.438-3.438v-0.938c0 0 0 0 0.001 0 2.499-1.876 2.499-5.624 0-7.5zM3.438 1.875h12.813c0.344 0 0.625 0.28 0.625 0.625v3.865c-0.196-0.070-0.405-0.115-0.625-0.115h-0.001v-3.125c0-0.346-0.28-0.625-0.625-0.625h-13.125c-0.345 0-0.625 0.279-0.625 0.625v2.464c-0.386-0.394-0.624-0.932-0.624-1.527 0-1.208 0.979-2.188 2.188-2.188zM15.624 3.75h-13.125v-0.625h13.125v0.625zM15.624 4.375v0.625h-13.125v-0.625h13.125zM15.624 5.625v0.625h-12.187c-0.337 0-0.653-0.082-0.938-0.219v-0.406h13.124zM16.875 16.563c0 1.208-0.979 2.188-2.188 2.188h-11.25c-1.209 0-2.188-0.979-2.188-2.188v-9.851c0.594 0.492 1.357 0.788 2.188 0.788h12.813c0.344 0 0.625 0.28 0.625 0.625v1.25h-5.625c-1.726 0-3.125 1.399-3.125 3.125s1.399 3.125 3.125 3.125h5.625v0.938zM17.673 14.375h-6.423c-1.034 0-1.875-0.841-1.875-1.875s0.841-1.875 1.875-1.875h5.625c0.386-0.005 0.768-0.192 1.001-0.502 0.065-0.088 0.116-0.186 0.156-0.288 0.006-0.014 0.016-0.024 0.021-0.039 0.449 0.589 0.697 1.312 0.697 2.079 0 0.961-0.388 1.853-1.077 2.5z"></path>
</svg>
